# xmcd
#
# Track frame offsets:
#	150
#	17763
#	38343
#	60845
#	77549
#	98358
#	120743
#	141175
#	161025
#	187922
#	212589
#	233411
#	257857
#
# Disc length: 3647 seconds
#
# Revision: 0
# Processed by: cddbd v1.5.1PL0 Copyright (c) Steve Scherf et al.
# Submitted via: dBpowerAMP V4.0
#
DISCID=920e3d0d
DTITLE=Michael John and the Bottom Line - From The Roots
DYEAR=2005
DGENRE=Blues
TTITLE0=Just Another Day
TTITLE1=I Still Love You Babe
TTITLE2=The Devil Put A Spell On My Baby
TTITLE3=Something You Got
TTITLE4=Can't Let Go
TTITLE5=Aint Doing Too Bad
TTITLE6=Bitter Game
TTITLE7=I Know What To Do
TTITLE8=Talk Dirty To Me
TTITLE9=Shoulda Known Better
TTITLE10=You Aint All That
TTITLE11=Real Deal
TTITLE12=Skinny Dipping
EXTD=
EXTT0=
EXTT1=
EXTT2=
EXTT3=
EXTT4=
EXTT5=
EXTT6=
EXTT7=
EXTT8=
EXTT9=
EXTT10=
EXTT11=
EXTT12=
PLAYORDER=
